<svg width="97" height="97" xmlns="http://www.w3.org/2000/svg" xmlns:xlink="http://www.w3.org/1999/xlink" xml:space="preserve" overflow="hidden"><defs><clipPath id="clip0"><rect x="1148" y="37" width="97" height="97"/></clipPath><clipPath id="clip1"><rect x="1149" y="38" width="96" height="96"/></clipPath><clipPath id="clip2"><rect x="1149" y="38" width="96" height="96"/></clipPath><clipPath id="clip3"><rect x="1149" y="38" width="96" height="96"/></clipPath></defs><g clip-path="url(#clip0)" transform="translate(-1148 -37)"><g clip-path="url(#clip1)"><g clip-path="url(#clip2)"><g clip-path="url(#clip3)"><path d="M1225 70 1225 78 1217 78 1217 70 1225 70ZM1169 106 1177 106 1177 114 1169 114 1169 106ZM1189 70 1189 78 1181 78 1181 70 1189 70ZM1201 70 1201 78 1193 78 1193 70 1201 70ZM1213 90 1205 90 1205 82 1213 82 1213 90ZM1217 90 1217 82 1225 82 1225 90 1217 90ZM1217 102 1217 94 1225 94 1225 102 1217 102ZM1193 106 1201 106 1201 114 1193 114 1193 106ZM1189 106 1189 114 1181 114 1181 106 1189 106ZM1181 94 1189 94 1189 102 1181 102 1181 94ZM1177 94 1177 102 1169 102 1169 94 1177 94ZM1177 82 1177 90 1169 90 1169 82 1177 82ZM1189 90 1181 90 1181 82 1189 82 1189 90ZM1193 90 1193 82 1201 82 1201 90 1193 90ZM1201 102 1193 102 1193 94 1201 94 1201 102ZM1205 102 1205 94 1213 94 1213 102 1205 102ZM1213 70 1213 78 1205 78 1205 70 1213 70ZM1163 64 1163 120 1231 120 1231 64 1163 64Z" fill="#000000" fill-rule="nonzero" fill-opacity="1"/><path d="M1163 52 1231 52 1231 60 1163 60Z" fill="#000000" fill-rule="nonzero" fill-opacity="1"/></g></g></g></g></svg>