<svg width="96" height="96" xmlns="http://www.w3.org/2000/svg" xmlns:xlink="http://www.w3.org/1999/xlink" xml:space="preserve" overflow="hidden"><defs><clipPath id="clip0"><rect x="592" y="312" width="96" height="96"/></clipPath></defs><g clip-path="url(#clip0)" transform="translate(-592 -312)"><path d="M642 381.2 642 386.5 638 386.5 638 381.2C635.7 380.4 634 378.2 634 375.5 634 372.2 636.7 369.5 640 369.5 643.3 369.5 646 372.2 646 375.5 646 378.1 644.3 380.3 642 381.2ZM625 344.5C625 336.2 631.7 329.5 640 329.5 648.3 329.5 655 336.2 655 344.5L655 355.6 640 354.5 625 355.6 625 344.5ZM661 356 661 344.5C661 332.9 651.6 323.5 640 323.5 628.4 323.5 619 332.9 619 344.5L619 356 612 356.5 612 394.5 640 396.5 668 394.5 668 356.5 661 356Z" fill="#000000" fill-rule="nonzero" fill-opacity="1"/></g></svg>