<svg width="96" height="96" xmlns="http://www.w3.org/2000/svg" xmlns:xlink="http://www.w3.org/1999/xlink" xml:space="preserve" overflow="hidden"><defs><clipPath id="clip0"><rect x="592" y="312" width="96" height="96"/></clipPath></defs><g clip-path="url(#clip0)" transform="translate(-592 -312)"><path d="M598 384 682 384 682 388 598 388Z" fill="#000000" fill-rule="nonzero" fill-opacity="1"/><path d="M607.929 358.205C606.932 358.127 606.036 357.567 605.529 356.705L599.1 345.769C598.892 345.401 599.022 344.935 599.389 344.727 599.458 344.688 599.531 344.66 599.608 344.644L601.97 344.144C602.667 343.997 603.393 344.182 603.935 344.644L612.605 352.07 629.075 348.614 612.3 334.651C611.976 334.38 611.932 333.896 612.204 333.572 612.314 333.44 612.465 333.349 612.633 333.314L616.101 332.587C616.733 332.453 617.392 332.523 617.982 332.787L645.544 345.165 668.752 340.3C671.746 339.671 680.018 341.843 680.489 344.089 681.275 347.832 673.789 349.403 673.789 349.403L635.029 357.537C628.645 358.877 622.104 359.302 615.6 358.8Z" fill="#000000" fill-rule="nonzero" fill-opacity="1"/></g></svg>