<svg width="98" height="98" xmlns="http://www.w3.org/2000/svg" xmlns:xlink="http://www.w3.org/1999/xlink" xml:space="preserve" overflow="hidden"><defs><clipPath id="clip0"><rect x="1166" y="302" width="98" height="98"/></clipPath><clipPath id="clip1"><rect x="1167" y="303" width="96" height="96"/></clipPath><clipPath id="clip2"><rect x="1167" y="303" width="96" height="96"/></clipPath><clipPath id="clip3"><rect x="1167" y="303" width="96" height="96"/></clipPath></defs><g clip-path="url(#clip0)" transform="translate(-1166 -302)"><g clip-path="url(#clip1)"><g clip-path="url(#clip2)"><g clip-path="url(#clip3)"><path d="M1215 363C1208.4 363 1203 357.6 1203 351 1203 344.4 1208.4 339 1215 339 1221.6 339 1227 344.4 1227 351 1227 357.6 1221.6 363 1215 363ZM1242 343.5C1241.4 341.3 1240.5 339.2 1239.4 337.3L1241.9 329.8 1236.2 324.1 1228.7 326.6C1226.7 325.5 1224.6 324.6 1222.4 324L1219 317 1211 317 1207.5 324C1205.3 324.6 1203.2 325.5 1201.3 326.6L1193.8 324.1 1188.1 329.8 1190.6 337.3C1189.5 339.3 1188.6 341.4 1188 343.6L1181 347 1181 355 1188 358.5C1188.6 360.7 1189.5 362.8 1190.6 364.7L1188.1 372.2 1193.8 377.9 1201.3 375.4C1203.3 376.5 1205.4 377.4 1207.6 378L1211.1 385 1219.1 385 1222.6 378C1224.8 377.4 1226.9 376.5 1228.8 375.4L1236.3 377.9 1242 372.2 1239.5 364.7C1240.6 362.7 1241.5 360.6 1242.1 358.4L1249.1 354.9 1249.1 346.9 1242 343.5Z" fill="#000000" fill-rule="nonzero" fill-opacity="1"/></g></g></g></g></svg>